<?xml version="1.0" encoding="utf-8"?>
<!-- Generator: Adobe Illustrator 26.3.1, SVG Export Plug-In . SVG Version: 6.00 Build 0)  -->
<svg version="1.1" xmlns="http://www.w3.org/2000/svg" xmlns:xlink="http://www.w3.org/1999/xlink" x="0px" y="0px"
	 viewBox="0 0 55.2 60.6" style="enable-background:new 0 0 55.2 60.6;" xml:space="preserve">
<style type="text/css">
	.st0{fill:#9A9A9A;}
</style>
<g id="Layer_2">
</g>
<g id="Layer_3">
	<g>
		<g>
			<path class="st0" d="M16.5,36.5C8,36.5,1.2,29.7,1.2,21.2S8,5.9,16.5,5.9s15.3,6.9,15.3,15.3S24.9,36.5,16.5,36.5z M16.5,6.9
				c-7.9,0-14.3,6.4-14.3,14.3s6.4,14.3,14.3,14.3s14.3-6.4,14.3-14.3S24.4,6.9,16.5,6.9z"/>
		</g>
		<g>
			<path class="st0" d="M16.5,33.9c-7,0-12.6-5.7-12.6-12.6S9.5,8.6,16.5,8.6c2.3,0,4.5,0.6,6.5,1.8c0.2,0.1,0.3,0.4,0.2,0.7
				c-0.1,0.2-0.4,0.3-0.7,0.2c-1.8-1.1-3.9-1.7-6-1.7c-6.4,0-11.6,5.2-11.6,11.6s5.2,11.6,11.6,11.6c6.4,0,11.6-5.2,11.6-11.6
				c0-0.3,0.2-0.5,0.5-0.5s0.5,0.2,0.5,0.5C29.1,28.2,23.4,33.9,16.5,33.9z"/>
		</g>
		<g>
			<path class="st0" d="M28.3,19.1c-0.2,0-0.4-0.2-0.5-0.4c-0.5-2.2-1.6-4.2-3.3-5.8c-0.2-0.2-0.2-0.5,0-0.7c0.2-0.2,0.5-0.2,0.7,0
				c1.8,1.7,3,3.9,3.6,6.3c0.1,0.3-0.1,0.5-0.4,0.6C28.4,19.1,28.4,19.1,28.3,19.1z"/>
		</g>
		<g>
			<path class="st0" d="M15,25.7l-4.4-4.4c-0.2-0.2-0.2-0.5,0-0.7s0.5-0.2,0.7,0l3.7,3.7l6.4-6.6c0.2-0.2,0.5-0.2,0.7,0
				c0.2,0.2,0.2,0.5,0,0.7L15,25.7z"/>
		</g>
		<g>
			<path class="st0" d="M53.7,42.6c-0.3,0-0.5-0.2-0.5-0.5V2.5h-25c-0.3,0-0.5-0.2-0.5-0.5s0.2-0.5,0.5-0.5h26v40.6
				C54.2,42.4,54,42.6,53.7,42.6z"/>
		</g>
		<g>
			<path class="st0" d="M47.4,10.5H35.8c-0.3,0-0.5-0.2-0.5-0.5s0.2-0.5,0.5-0.5h11.6c0.3,0,0.5,0.2,0.5,0.5S47.7,10.5,47.4,10.5z"
				/>
		</g>
		<g>
			<path class="st0" d="M47.4,20.7H35.8c-0.3,0-0.5-0.2-0.5-0.5s0.2-0.5,0.5-0.5h11.6c0.3,0,0.5,0.2,0.5,0.5S47.7,20.7,47.4,20.7z"
				/>
		</g>
		<g>
			<path class="st0" d="M47.5,32.2h-5.9c-0.3,0-0.5-0.2-0.5-0.5s0.2-0.5,0.5-0.5h5.9c0.3,0,0.5,0.2,0.5,0.5S47.7,32.2,47.5,32.2z"/>
		</g>
		<g>
			<path class="st0" d="M48.7,15.6H34.6c-0.3,0-0.5-0.2-0.5-0.5s0.2-0.5,0.5-0.5h14.1c0.3,0,0.5,0.2,0.5,0.5S49,15.6,48.7,15.6z"/>
		</g>
		<g>
			<path class="st0" d="M49.2,59.3c-1.4,0-2.7-0.6-3.6-1.6L32,43c-0.6-0.6-0.8-1.4-0.8-2.2c0-0.8,0.4-1.6,1-2.1l1.8-1.6
				c1.2-1,2.9-1,4.1,0l2.9,2.7c0.2,0.2,0.2,0.5,0,0.7c-0.2,0.2-0.5,0.2-0.7,0l-2.9-2.7c-0.8-0.7-1.9-0.7-2.7,0l-1.8,1.6
				c-0.4,0.4-0.6,0.9-0.7,1.4c0,0.5,0.2,1.1,0.5,1.5L46.3,57c0.8,0.8,1.8,1.3,2.9,1.3c1.1,0,2.2-0.5,2.9-1.3c1.4-1.6,1.3-4-0.3-5.5
				l-5.3-5c-0.2-0.2-0.2-0.5,0-0.7c0.2-0.2,0.5-0.2,0.7,0l5.3,5c2,1.8,2.1,4.9,0.3,6.9C52,58.7,50.7,59.3,49.2,59.3
				C49.3,59.3,49.3,59.3,49.2,59.3z"/>
		</g>
		<g>
			<path class="st0" d="M45,44.8c-0.1,0-0.2,0-0.3-0.1l-2.4-2.2c-0.2-0.2-0.2-0.5,0-0.7c0.2-0.2,0.5-0.2,0.7,0l2.4,2.2
				c0.2,0.2,0.2,0.5,0,0.7C45.3,44.8,45.1,44.8,45,44.8z"/>
		</g>
		<g>
			<path class="st0" d="M32,39.9c-0.1,0-0.3-0.1-0.4-0.2l-6.1-6.6c-0.2-0.2-0.2-0.5,0-0.7c0.2-0.2,0.5-0.2,0.7,0l6.1,6.6
				c0.2,0.2,0.2,0.5,0,0.7C32.3,39.9,32.2,39.9,32,39.9z"/>
		</g>
		<g>
			<path class="st0" d="M33.9,38.1c-0.1,0-0.3,0-0.4-0.1l-6.3-6.2c-0.2-0.2-0.2-0.5,0-0.7c0.2-0.2,0.5-0.2,0.7,0l6.3,6.2
				c0.2,0.2,0.2,0.5,0,0.7C34.1,38.1,34,38.1,33.9,38.1z"/>
		</g>
	</g>
</g>
</svg>
